<svg width="16" height="16" viewBox="0 0 16 16" fill="none" xmlns="http://www.w3.org/2000/svg">
<path fill-rule="evenodd" clip-rule="evenodd" d="M10 5C10 6.65685 8.65685 8 7 8C5.34315 8 4 6.65685 4 5C4 3.34315 5.34315 2 7 2C8.65685 2 10 3.34315 10 5ZM10.3731 8.69089C11.3729 7.77666 12 6.46156 12 5C12 2.23858 9.76142 0 7 0C4.23858 0 2 2.23858 2 5C2 6.46156 2.62711 7.77666 3.62693 8.69089C1.53311 9.28757 0 11.2147 0 13.5V16H2V13.5C2 11.8431 3.34315 10.5 5 10.5H7H9C10.6569 10.5 12 11.8431 12 13.5V16H14V13.5C14 11.2147 12.4669 9.28757 10.3731 8.69089Z" fill="black"/>
</svg>
